<?xml version="1.0" encoding="utf-8"?>
<!-- Generator: Adobe Illustrator 26.0.3, SVG Export Plug-In . SVG Version: 6.00 Build 0)  -->
<svg version="1.1" id="Слой_1" xmlns="http://www.w3.org/2000/svg" xmlns:xlink="http://www.w3.org/1999/xlink" x="0px" y="0px"
	 viewBox="0 0 1000 1000" style="enable-background:new 0 0 1000 1000;" xml:space="preserve">
<style type="text/css">
	.st0{fill:#192B1F;}
	.st1{fill:#C6A27B;}
</style>
<g>
	<path class="st0" d="M729.67,500.22l20.07-11.86c0.17-0.1,0.42-0.1,0.59,0l20.32,12.05c0.1,0.06,0.25,0.01,0.25-0.08v-8.14
		c0-0.14-0.09-0.28-0.25-0.38c-6.8-3.91-13.6-7.82-20.4-11.73c-0.17-0.09-0.4-0.09-0.56,0c-6.78,3.91-13.55,7.82-20.33,11.73
		c-0.16,0.09-0.25,0.23-0.25,0.38c0.11,2.65,0.23,5.31,0.34,7.96C729.46,500.23,729.59,500.27,729.67,500.22z"/>
	<path class="st0" d="M538.47,581.83c0.13,0.38,0,0.79-0.31,1.04l-2.35,1.84c-8.49,6.58-18.23,9.86-29.21,9.86
		c-6.08,0-11.88-1.08-17.42-3.25c-5.54-2.16-10.47-5.28-14.79-9.36c-4.49-4.24-7.95-9.11-10.36-14.61
		c-2.41-5.49-3.62-11.28-3.62-17.35c0-6.07,1.21-11.84,3.62-17.29c2.41-5.45,5.87-10.3,10.36-14.54c4.33-4.16,9.26-7.32,14.79-9.49
		c5.53-2.16,11.34-3.25,17.42-3.25c10.9,0,20.6,3.29,29.09,9.86l2.32,1.72c0.33,0.24,0.46,0.67,0.33,1.06l-6.56,19.67
		c-0.1,0.31-0.49,0.4-0.72,0.18l-5.11-4.77c-2.58-2.41-5.51-4.24-8.8-5.49c-3.29-1.25-6.8-1.87-10.55-1.87
		c-3.75,0-7.26,0.65-10.55,1.93c-3.29,1.29-6.22,3.14-8.8,5.56c-4.99,4.74-7.49,10.32-7.49,16.73c0,3.16,0.64,6.18,1.93,9.05
		c1.29,2.87,3.14,5.43,5.56,7.68c2.58,2.42,5.51,4.27,8.8,5.56c3.29,1.29,6.8,1.94,10.55,1.94c3.75,0,7.28-0.64,10.61-1.94
		c3.33-1.29,6.28-3.14,8.86-5.56l5.11-4.77c0.24-0.22,0.62-0.12,0.72,0.18L538.47,581.83z"/>
	<path class="st0" d="M587.37,551.12l37.32,43.09c0.25,0.29,0.04,0.73-0.33,0.73h-24.67c-0.44,0-0.87-0.19-1.16-0.53l-25.01-28.93
		c-0.42-0.42-0.87-0.52-1.37-0.31c-0.5,0.21-0.75,0.6-0.75,1.19V594c0,0.52-0.42,0.94-0.94,0.94h-18.59c-0.52,0-0.94-0.42-0.94-0.94
		v-85.63c0-0.52,0.42-0.94,0.94-0.94h18.59c0.52,0,0.94,0.42,0.94,0.94v27.65c0,0.58,0.25,0.96,0.75,1.12
		c0.5,0.17,0.96,0.04,1.37-0.37l25.01-28.81c0.29-0.33,0.71-0.53,1.16-0.53h24.67c0.38,0,0.58,0.45,0.33,0.73L587.37,551.12z"/>
	<path class="st0" d="M650.89,507.42c0.52,0,0.94,0.42,0.94,0.94v44.75c0,0.17,0.04,0.27,0.12,0.31c0.08,0.04,0.17-0.02,0.25-0.19
		l30.68-45.4c0.18-0.26,0.47-0.41,0.78-0.41h16.66c0.52,0,0.94,0.42,0.94,0.94V594c0,0.52-0.42,0.94-0.94,0.94h-18.09
		c-0.52,0-0.94-0.42-0.94-0.94v-47.37c0-0.17-0.04-0.27-0.12-0.31c-0.08-0.04-0.17,0.02-0.25,0.19l-31.06,48.01
		c-0.17,0.27-0.47,0.43-0.79,0.43H632.8c-0.52,0-0.94-0.42-0.94-0.94v-85.63c0-0.52,0.42-0.94,0.94-0.94H650.89z"/>
	<path class="st0" d="M734.29,507.42c0.52,0,0.94,0.42,0.94,0.94v44.75c0,0.17,0.04,0.27,0.12,0.31c0.08,0.04,0.17-0.02,0.25-0.19
		l30.68-45.4c0.18-0.26,0.47-0.41,0.78-0.41h16.66c0.52,0,0.94,0.42,0.94,0.94V594c0,0.52-0.42,0.94-0.94,0.94h-18.09
		c-0.52,0-0.94-0.42-0.94-0.94v-47.37c0-0.17-0.04-0.27-0.12-0.31c-0.08-0.04-0.17,0.02-0.25,0.19l-31.06,48.01
		c-0.17,0.27-0.47,0.43-0.79,0.43H716.2c-0.52,0-0.94-0.42-0.94-0.94v-85.63c0-0.52,0.42-0.94,0.94-0.94H734.29z"/>
	<path class="st0" d="M282.93,508.36V594c0,0.52-0.42,0.94-0.94,0.94H263.9c-0.52,0-0.94-0.42-0.94-0.94v-21.54
		c0-0.08-0.02-0.12-0.03-0.2v-5.05c0,0,0,0,0-0.02c0-0.52-0.41-0.95-0.95-0.96h-26.9c-0.52,0.02-0.95,0.44-0.95,0.96V594
		c0,0.52-0.42,0.94-0.94,0.94h-18.09c-0.52,0-0.94-0.42-0.94-0.94v-85.64c0-0.52,0.42-0.94,0.94-0.94h18.09
		c0.52,0,0.94,0.42,0.94,0.94v36.97c0,0.02,0,0.02,0,0.02c0,0.54,0.43,0.95,0.95,0.98H262c0.52-0.02,0.95-0.44,0.95-0.96
		c0-0.02,0-0.02,0-0.02v-36.98c0-0.52,0.42-0.94,0.94-0.94h18.09C282.5,507.42,282.93,507.84,282.93,508.36z"/>
	<path class="st0" d="M446.86,558.86c-1.12-3-2.77-5.7-4.93-8.12c3.99-4.74,5.99-10.32,5.99-16.73c0-3.58-0.6-6.95-1.81-10.11
		c-1.21-3.16-2.89-5.95-5.06-8.36c-2.42-2.58-5.24-4.56-8.49-5.93c-3.25-1.37-6.74-2.06-10.49-2.06H376.2
		c-0.52,0-0.94,0.42-0.94,0.94v13.67c0,0.27,0.07,0.54,0.21,0.78c5.16,9.1,10.32,18.19,15.49,27.29c0.14,0.26,0.14,0.69,0,0.95
		c-5.16,9.04-10.32,18.07-15.48,27.11c-0.14,0.24-0.21,0.5-0.21,0.78v14.68c0,0.52,0.42,0.94,0.94,0.94h45.88
		c3.66,0,7.09-0.69,10.3-2.06c3.2-1.37,6.01-3.27,8.43-5.68c2.41-2.41,4.31-5.22,5.68-8.43c1.37-3.2,2.06-6.64,2.06-10.3
		C448.54,564.98,447.98,561.86,446.86,558.86z M395.11,528.52c0-0.75,0.42-1.12,1.25-1.12h24.97c1.83,0,3.41,0.65,4.74,1.94
		c1.33,1.29,1.95,2.89,1.87,4.81c0,1.92-0.67,3.56-2,4.93c-1.33,1.37-2.87,2.06-4.62,2.06h-24.97c-0.83,0-1.25-0.37-1.25-1.12
		V528.52z M426.69,572.91c-1.33,1.29-2.91,1.94-4.74,1.94h-25.59c-0.83,0-1.25-0.38-1.25-1.12v-11.49c0-0.75,0.42-1.12,1.25-1.12
		h25.72c1.75,0,3.27,0.69,4.56,2.06c1.29,1.37,1.98,3.02,2.06,4.93C428.69,570.01,428.02,571.62,426.69,572.91z"/>
	<path class="st0" d="M368.05,526.71v-18.34c0-0.52-0.42-0.94-0.94-0.94h-69.28c-0.52,0-0.94,0.42-0.94,0.94v85.51
		c0,0.52,0.42,0.94,0.94,0.94h69.28c0.52,0,0.94-0.42,0.94-0.94v-18.09c0-0.52-0.42-0.94-0.94-0.94h-49.24c-0.55,0-1-0.45-1-1v-6.49
		c0-0.75,0.33-1.12,1-1.12h22.15c0.55,0,0.99-0.45,0.99-0.99v-17.86c0-0.55-0.45-0.99-0.99-0.99h-22.15c-0.67,0-1-0.38-1-1.12v-16.6
		c0-0.55,0.45-1,1-1h49.25C367.63,527.65,368.05,527.23,368.05,526.71z"/>
	<g>
		<g>
			<path class="st1" d="M839.22,582.12c-0.69-0.75-1.8-1.15-2.62-1.15c-0.01,0-0.01,0-0.03,0c-0.75,0-1.53,0.22-2.12,0.6
				c-0.13,0.1-0.48,0.35-1.02,0.72c-13.81,9.68-26.13,18.87-36.62,27.31c-0.18,0.14-0.38,0.14-0.6,0.2c-0.42,0-0.58-0.18-0.83-0.54
				c-0.08-0.1-0.16-0.21-0.24-0.29c-0.54-0.94-1.07-1.86-1.6-2.75c-4.28-7.31-7.68-13.09-7.61-22.19c0.04-5.95,6.25-9.71,10.54-9.71
				h0.04c3.86,0.03,6.42,2.58,6.44,2.61c0.65,0.67,1.56,1.03,2.54,1.05c0.01,0,0.01,0,0.03,0c1.94,0,3.64-1.69,3.65-3.64
				c0.01-1.06-0.46-2.1-1.26-2.82c-2.08-2.02-6.3-4.39-11.36-4.43h-0.09c-6.86,0-16.6,5.32-17.74,15.05
				c-13.67,9.6-25.9,18.72-36.31,27.09c-0.18,0.14-0.37,0.2-0.6,0.2c-0.42,0-0.58-0.18-0.83-0.54c-0.08-0.1-0.16-0.21-0.24-0.29
				c-0.55-0.96-1.09-1.87-1.61-2.76c-4.28-7.31-7.66-13.07-7.6-22.18c0.04-5.95,6.25-9.71,10.54-9.71h0.04
				c3.86,0.03,6.42,2.58,6.45,2.61c0.65,0.67,1.56,1.03,2.54,1.05c0.01,0,0.01,0,0.03,0c1.94,0,3.64-1.69,3.65-3.64
				c0.01-1.06-0.46-2.1-1.27-2.82c-2.07-2.02-6.29-4.39-11.34-4.43h-0.09c-6.99,0-16.98,5.53-17.79,15.63
				c-0.84,0.81-1.77,1.66-2.72,2.54l-0.33,0.31c-11.23,10.49-30.01,28.06-45.57,32.56c-2.73,0.77-5.36,1.19-7.66,1.17
				c-3.79-0.03-6.65-1.06-8.5-3.09c-1.35-1.52-2.06-3.68-2.04-6.25c0.03-2.54,0.69-5.33,2-8.32c0.88-1.95,2.16-4.2,3.84-6.72
				c0.8-1.22,2.08-1.93,3.52-1.93c0.01,0,0.01,0,0.03,0l1.91,0.01c4.66-0.03,9.31-0.97,13.48-2.89c5.12-2.34,9.75-6.06,13.01-10.45
				c2.78-3.77,4.26-7.36,4.28-10.37c0.01-1.72-0.45-3.21-1.34-4.37c-0.52-0.79-2.11-2.65-5.53-2.66c-1.36-0.05-2.88,0.29-4.57,0.93
				c-7.65,2.75-15.98,9.89-22.49,17.03c-0.33,0.05-0.67,0.14-0.98,0.37c-9.82,5.2-16.15,7.53-20.51,7.53h-0.08
				c-4.89-0.03-8.53-4.83-11.11-14.7c-0.56-1.98-2-3.29-3.94-3.5c-3.94-0.04-6.82-0.05-31.42,42.95c0.45-1.07,0.9-2.2,1.38-3.34
				l1.35-3.25c1.91-6.7,4.31-11.5,6.2-14.7c2.01-3.41,3.32-7.29,5.84-10.34c0.61-0.74,2.67-3.25,2.68-6.17
				c0.01-2.38-1.82-3.68-3.55-3.69c-1.01,0.04-2,0.38-2.82,1.11c-1.11,0.81-2.86,3.73-4.9,7.81c-0.03,0.01-0.07,0.01-0.09,0.03
				l-0.21,0.05c-0.63,0.2-3.1,0.67-6.17,1.1l-2.21,0.37c-4.66,0.76-10.47,1.7-16.9,3.09c-0.1,0.01-0.2,0.04-0.24,0.07
				c-0.24,0-0.39-0.13-0.47-0.21c-0.13-0.16-0.21-0.35-0.2-0.56l-0.01-0.08c0.09-0.69,0.1-1.3,0.1-1.99
				c0.01-2.45-0.34-4.74-1.09-6.84c-2.21-6.01-7.45-9.88-14.05-10.36h-1.17c-4.82-0.04-12.74,1.74-22.78,10.44
				c-1.52,1.38-3.08,2.88-4.61,4.47c2.51-4.64,4.83-8.68,7.11-12.35c0.34-0.67,0.5-1.24,0.5-1.87c0.01-1.26-0.64-2.46-1.76-3.18
				c-0.67-0.34-1.26-0.5-1.87-0.5c-0.01,0-0.03,0-0.03,0c-1.27,0-2.44,0.64-3.14,1.72c-3.26,5.32-6.51,11.19-9.73,17.55
				c-0.04,0.03-0.07,0.07-0.09,0.09c-14.5,19.24-28.2,29.84-38.61,29.84h-0.11c-2.19-0.01-4.19-0.5-6.12-1.48
				c-5.28-2.67-9.14-9.14-10.89-18.29c-0.04-0.09-0.05-0.18-0.07-0.27c-0.03-0.16-0.05-0.31-0.1-0.48
				c-0.05-0.14-0.04-0.45-0.04-0.63c0-1.21,0.6-2.34,1.58-3.04c15.65-11.34,30.98-18.53,33.96-19.9c1.28-0.58,2.15-1.89,2.16-3.25
				c0-0.5-0.09-1-0.3-1.51c-0.58-1.38-1.86-2.24-3.34-2.25c-0.45-0.04-0.93,0.09-1.48,0.31c-2.74,1.22-17.16,7.86-32.72,18.74
				c-0.03,0.03-0.1,0.05-0.2,0.05c-0.07,0.01-0.18-0.04-0.25-0.1c-0.07-0.07-0.11-0.14-0.11-0.3c0-7.29,0.97-9,0.97-9
				c0.69-2.35,1.57-5.06,2.72-8.03l0.08-0.55c0.07-0.48,0.1-0.88,0.12-1.27v-0.33c0.01-3.17-2.23-3.93-2.91-4.09l-0.2-0.03
				c-0.17-0.03-0.43-0.07-0.69-0.08c-0.01,0-0.01,0-0.03,0c-0.75,0-2.55,0.26-3.5,2.51c-0.12,0.22-0.24,0.55-0.37,0.93
				c-0.08,0.22-0.16,0.46-0.27,0.76c-2.03,6.59-3.14,13.61-3.23,20.36c-0.08,0.05-0.16,0.12-0.24,0.2c-1.02,1.01-2.2,2.11-3.47,3.27
				l-0.39,0.37c-11.23,10.49-30,28.06-45.56,32.55c-2.72,0.79-5.44,1.15-7.66,1.18c-3.8-0.03-6.65-1.07-8.5-3.09
				c-1.35-1.53-2.06-3.69-2.04-6.25c0.01-2.54,0.69-5.34,2-8.32c0.88-1.95,2.16-4.2,3.84-6.72c0.8-1.23,2.08-1.93,3.51-1.93h0.04
				l1.91,0.01c4.66,0.03,9.31-0.97,13.48-2.89c5.12-2.34,9.75-6.06,12.99-10.47c2.79-3.77,4.27-7.35,4.28-10.36
				c0.01-1.73-0.45-3.21-1.32-4.37c-0.52-0.8-2.11-2.65-5.54-2.67h-0.05c-1.36,0-2.84,0.31-4.52,0.93
				c-9.72,3.51-20.51,14.08-27.32,22.74c-0.35,0.35-0.64,0.72-0.9,1.15c-3.13,4.19-5.58,8.24-7.09,11.68
				c-1.72,3.97-2.61,7.75-2.62,11.24v0.2c0,4.28,1.3,7.94,3.84,10.86c3.26,3.67,8.07,5.62,13.88,5.66h0.16
				c2.84,0,5.99-0.51,9.63-1.55c6.14-1.78,12.61-5.27,18.9-9.51c-0.26,0.33-0.5,0.64-0.71,0.92c-2.06,2.62-3.35,4.65-4.11,5.92
				l-0.12,0.25c-0.45,0.86-1.13,2.19-1.14,3.63c0,0.96,0.33,1.86,1.01,2.63c0.35,0.37,1.34,1.2,2.79,1.22c0.01,0,0.01,0,0.03,0
				c0.73,0,1.9-0.26,3.33-1.47c0.68-0.58,1.13-1.38,1.24-2.25c0.16-1.27,0.62-2.53,1.32-3.6c2.37-3.25,8.07-10.37,19.5-21.47
				c2.33-2.31,4.57-4.32,6.79-6.18l0.25,1.05c0.3,1.22,0.64,2.66,0.9,3.58c2.54,8.49,7.3,14.93,13.39,18.17
				c2.84,1.45,6.03,2.2,9.44,2.21h0.16c4.51,0,9.34-1.36,14.37-4.06c4.4-2.34,8.95-5.68,13.6-10.02c-1.28,2.99-2.55,6.06-3.81,9.21
				c-0.1,0.2-0.55,1.24-0.63,1.65c-5.29,13.48-8.93,24.26-10.64,29.48c-3.63,11.02-6.9,22.42-9.23,32.1
				c-0.9,3.79-1.62,7.19-2.08,9.89l-0.08,0.5c-0.14,1.07-0.27,2-0.29,2.92c-0.01,1.94,0.58,3.22,1.86,4.06l0.18,0.09
				c0.43,0.17,1.07,0.45,1.83,0.45h0.04c1.41,0,2.61-0.71,3.52-2.1c0.42-0.63,0.62-1.24,0.63-1.95c0-0.71-0.22-1.43-0.63-2.02
				c0.75-5.34,4.65-21.85,12.25-44.74c2.67-8.11,5.5-15.95,8.41-23.35c0.88-2.4,2.03-4.89,3.43-7.4
				c21.25-37.88,37.57-40.91,42.16-40.91h0.86c3.67,0.26,6.35,2.24,7.56,5.53c0.47,1.47,0.69,2.76,0.69,4.06
				c-0.01,0.52-0.09,1.18-0.18,1.85c-0.22,1.93-1.69,3.58-3.64,4.09c-11.55,3.12-21.21,6.98-28.67,11.46
				c-9.47,5.65-11.49,10.45-11.5,13.49c-0.01,1.36,0.39,2.33,0.62,2.87c1.24,2.78,4.19,4.34,8.33,4.36
				c2.11,0.01,4.65-0.41,7.37-1.23c5.21-1.62,13.84-5.87,25.4-16.92c1.87-1.83,3.51-3.8,4.87-5.82c1.32-1.87,3.13-3.1,5.21-3.54
				c6.59-1.44,12.64-2.45,17.5-3.25c1.1-0.18,2.13-0.35,3.09-0.52l0.35-0.05c0.39-0.07,0.77-0.12,1.13-0.18
				c-2.42,5.41-4.96,11.49-7.23,17.07c-1.22,2.96-3.83,9.38-6.12,15.69c-2.31,6.33-4.31,12.57-4.32,15.18
				c-0.01,2.95,2.11,4.51,4.27,4.52c3.47-0.25,6.59-5.27,13.4-17.51c12.26-21.72,20.32-34.89,26.08-42.69
				c0.22-0.28,0.54-0.41,0.75-0.41c0.45,0,0.79,0.22,0.97,0.58c3.63,9.75,8.97,14.5,16.36,14.55h0.14c3.75,0,7.64-1.01,11.74-2.62
				c-1.31,2.11-2.37,4.1-3.17,5.93c-1.73,3.97-2.61,7.75-2.63,11.25c-0.03,4.36,1.26,8.08,3.84,11.04l0.01,0.01
				c3.26,3.65,8.06,5.61,13.87,5.65h0.17c2.83,0,5.97-0.51,9.61-1.55c16.67-4.82,35.64-22.2,47.36-33.11
				c1.7,8.21,5.78,14.71,8.93,19.77c0.2,0.35,0.38,0.65,0.54,0.92c0.6,1.06,0.79,1.38,0.77,1.85c0,0.58-0.26,1.14-0.69,1.51
				c-11.25,9.56-18.81,17.32-22.48,23.01c-1.62,2.59-2.83,4.9-3.63,6.94c-0.8,2.04-1.21,3.84-1.22,5.38
				c-0.03,4.07,2.87,6.93,7.03,6.96h0.07c5.16,0,12.38-4.01,18-10.02c8.08-8.72,12.22-17.43,12.27-25.88c0-0.96-0.07-1.83-0.13-2.76
				l-0.01-0.14c0.01-1.62,0.27-2.31,1.19-3.16c12.35-10.01,25.54-19.61,33.49-25.27c1.52,8.8,5.84,15.72,9.17,21.04
				c0.21,0.35,0.38,0.65,0.54,0.93c0.6,1.05,0.79,1.38,0.77,1.83c0,0.58-0.26,1.14-0.69,1.51c-11.25,9.56-18.81,17.32-22.48,23.01
				c-3.23,5.19-4.82,9.22-4.85,12.33c-0.01,2.11,0.72,3.9,2.11,5.16c1.27,1.15,3.01,1.78,4.92,1.79h0.07c5.16,0,12.38-4.01,18-10.02
				c8.1-8.72,12.22-17.43,12.27-25.87c0.01-0.93-0.05-1.78-0.13-2.69l-0.01-0.24c0.01-0.97,0.1-1.61,0.37-2.14
				c0,0,0.3-0.56,0.82-1.02c1.53-1.33,35.84-26.84,38.14-28.55c0.25-0.14,0.59-0.37,0.9-0.74
				C840.21,585.84,840.49,583.48,839.22,582.12z M670.81,585.04c6.89-7.58,14.29-13.31,19.83-15.31c0.51-0.21,1.05-0.37,1.52-0.43
				v0.08c-0.08,0.55-0.52,2.55-2.75,5.53c-1.66,2.24-7.92,9.6-18.56,10.36c-0.03,0-0.09-0.08-0.09-0.08
				C670.76,585.15,670.79,585.09,670.81,585.04z M406.21,583.24c6.89-7.58,14.29-13.3,19.83-15.31c0.5-0.21,1.05-0.37,1.51-0.42
				l0.01,0.08c-0.09,0.54-0.52,2.55-2.75,5.51c-1.68,2.24-7.94,9.61-18.56,10.37c-0.03-0.01-0.09-0.08-0.1-0.09
				C406.16,583.36,406.18,583.31,406.21,583.24z M562.74,596.22c-11.43,10.95-19.56,14.23-22.52,15.13
				c-2.54,0.76-4.26,0.93-5.25,0.93c-0.27,0-0.48-0.07-0.64-0.22c-0.17-0.18-0.26-0.43-0.26-0.71c0-0.31,0.1-0.42,0.2-0.52
				c1.38-1.77,3.77-3.69,7.11-5.71c5.68-3.42,12.94-6.47,21.59-9.1L562.74,596.22z M733.66,634.19c-1.96,3.41-4.43,6.42-6.64,8.79
				c-4.2,4.55-8.84,6.94-11.57,7.64c-0.64-0.03-0.68-0.26-0.68-0.6v-0.17c0.33-1.23,1.2-3.46,3.54-7.13
				c3.06-4.81,9.47-11.45,19.02-19.7C737.09,626.98,735.63,630.78,733.66,634.19z M791.7,623.4c-0.48,7.9-5.87,15.21-10.3,19.95
				h-0.01c-4.2,4.55-8.84,6.94-11.57,7.64c-0.25-0.01-0.43-0.07-0.54-0.14c-0.04-0.03-0.14-0.12-0.14-0.46v-0.17
				c0.33-1.23,1.22-3.46,3.54-7.13C775.75,638.29,782.15,631.64,791.7,623.4z"/>
		</g>
	</g>
	<g>
		<path class="st1" d="M393.44,415.12v-1.86l5.04-7.86c0.38-0.59,0.72-1.13,1.04-1.64s0.58-1.04,0.78-1.6
			c0.2-0.56,0.31-1.21,0.31-1.95c0-0.91-0.15-1.63-0.44-2.16c-0.29-0.52-0.81-0.78-1.54-0.78c-0.62,0-1.1,0.17-1.45,0.51
			c-0.34,0.34-0.58,0.79-0.71,1.35c-0.13,0.56-0.2,1.15-0.2,1.79v0.66h-2.62v-0.69c0-1.19,0.16-2.22,0.48-3.07
			c0.32-0.86,0.83-1.52,1.54-2c0.71-0.47,1.65-0.71,2.83-0.71c1.6,0,2.79,0.45,3.57,1.36c0.78,0.91,1.18,2.16,1.18,3.76
			c0,0.85-0.1,1.59-0.31,2.23c-0.2,0.64-0.47,1.23-0.8,1.79c-0.33,0.55-0.68,1.13-1.08,1.71l-4.56,6.95h6.27v2.2H393.44z"/>
		<path class="st1" d="M410.49,415.34c-1.13,0-2.05-0.25-2.78-0.76c-0.73-0.51-1.27-1.2-1.62-2.08c-0.35-0.88-0.53-1.89-0.53-3.01
			v-8.55c0-1.16,0.17-2.18,0.51-3.05c0.34-0.87,0.88-1.56,1.6-2.04c0.73-0.49,1.66-0.74,2.8-0.74c1.14,0,2.07,0.25,2.79,0.74
			c0.72,0.49,1.25,1.17,1.59,2.04c0.34,0.87,0.51,1.89,0.51,3.05v8.55c0,1.14-0.17,2.15-0.53,3.04c-0.35,0.88-0.89,1.57-1.6,2.07
			C412.53,415.09,411.61,415.34,410.49,415.34z M410.49,413.18c0.62,0,1.09-0.18,1.41-0.54c0.32-0.36,0.54-0.82,0.66-1.38
			c0.12-0.56,0.18-1.15,0.18-1.75v-8.6c0-0.64-0.06-1.24-0.17-1.8s-0.33-1.02-0.65-1.36c-0.32-0.34-0.8-0.51-1.43-0.51
			c-0.64,0-1.12,0.17-1.44,0.51c-0.33,0.34-0.55,0.8-0.66,1.36c-0.11,0.56-0.17,1.16-0.17,1.8v8.6c0,0.6,0.06,1.19,0.18,1.75
			c0.12,0.56,0.35,1.02,0.68,1.38C409.41,413.01,409.88,413.18,410.49,413.18z"/>
	</g>
	<g>
		<path class="st1" d="M587.04,415.12v-16.41c-0.02,0.02-0.2,0.06-0.55,0.15c-0.35,0.08-0.75,0.16-1.19,0.25
			c-0.44,0.08-0.83,0.16-1.17,0.22c-0.34,0.07-0.52,0.1-0.54,0.1v-1.98c0.28-0.07,0.6-0.16,0.97-0.27c0.37-0.12,0.74-0.25,1.13-0.42
			c0.38-0.16,0.75-0.37,1.1-0.61c0.35-0.24,0.65-0.53,0.89-0.86h1.98v19.83H587.04z"/>
		<path class="st1" d="M598.67,415.34c-1.19,0-2.15-0.24-2.87-0.71c-0.72-0.47-1.24-1.15-1.55-2.02c-0.32-0.87-0.48-1.9-0.48-3.07
			c0-0.67,0.06-1.26,0.17-1.76c0.11-0.51,0.28-0.95,0.5-1.33c0.22-0.38,0.48-0.72,0.78-1c0.3-0.29,0.63-0.54,0.99-0.77
			c-0.65-0.44-1.18-1.02-1.59-1.73c-0.41-0.71-0.61-1.61-0.61-2.71c0-1.04,0.16-1.95,0.49-2.72c0.33-0.77,0.84-1.36,1.53-1.78
			c0.69-0.42,1.57-0.62,2.63-0.62c1.06,0,1.93,0.21,2.61,0.62c0.68,0.42,1.18,1.01,1.51,1.78c0.33,0.77,0.49,1.67,0.49,2.72
			c0,1.11-0.2,2.02-0.6,2.72c-0.4,0.7-0.94,1.27-1.6,1.71c0.36,0.23,0.69,0.49,0.99,0.77c0.3,0.29,0.56,0.62,0.78,1
			c0.22,0.38,0.39,0.83,0.52,1.33c0.12,0.51,0.18,1.09,0.18,1.76c0,1.18-0.16,2.2-0.48,3.07c-0.32,0.87-0.83,1.55-1.54,2.02
			C600.81,415.1,599.86,415.34,598.67,415.34z M598.67,413.26c0.64,0,1.13-0.16,1.47-0.49c0.34-0.33,0.58-0.77,0.7-1.32
			c0.12-0.55,0.18-1.17,0.18-1.86c0-0.62-0.07-1.2-0.21-1.75c-0.14-0.55-0.38-1-0.72-1.35c-0.34-0.35-0.82-0.53-1.42-0.53
			c-0.6,0-1.08,0.17-1.43,0.51c-0.35,0.34-0.6,0.79-0.75,1.33c-0.15,0.55-0.22,1.14-0.22,1.78c0,0.69,0.07,1.31,0.2,1.86
			c0.13,0.56,0.37,1,0.72,1.32C597.54,413.1,598.03,413.26,598.67,413.26z M598.67,403.46c0.55-0.02,0.98-0.19,1.26-0.51
			c0.29-0.33,0.49-0.75,0.6-1.26s0.17-1.05,0.17-1.6c0-0.82-0.15-1.51-0.44-2.08c-0.29-0.57-0.83-0.86-1.59-0.86
			c-0.77,0-1.31,0.29-1.62,0.86c-0.31,0.57-0.47,1.26-0.47,2.08c0,0.56,0.06,1.09,0.17,1.6s0.32,0.94,0.62,1.26
			C597.69,403.28,598.12,403.45,598.67,403.46z"/>
	</g>
	<path class="st1" d="M465.76,338.9l33.31-19.69c0.28-0.17,0.7-0.17,0.98,0l33.74,20.01c0.16,0.09,0.41,0.02,0.41-0.13v-13.51
		c0-0.24-0.15-0.47-0.42-0.63c-11.29-6.49-22.57-12.98-33.85-19.47c-0.27-0.15-0.66-0.15-0.93,0
		c-11.25,6.49-22.49,12.98-33.74,19.47c-0.27,0.16-0.42,0.39-0.42,0.63c0.19,4.4,0.38,8.81,0.57,13.21
		C465.39,338.92,465.61,338.99,465.76,338.9z"/>
	<path class="st0" d="M560.84,391.05c0.01,8.37-1.47,16.37-4.44,24.01c-2.95,7.64-7.31,14.43-13.02,20.42
		c-5.05,5.37-10.7,9.64-16.97,12.86c-0.09,0.05-0.2,0.11-0.28,0.14c-8.75,5.07-17.51,10.12-26.26,15.17
		c-0.11,0.06-0.21,0.09-0.35,0.09h-0.01c-0.14,0-0.25-0.03-0.35-0.09c-8.74-5.05-17.51-10.1-26.26-15.17
		c-0.08-0.03-0.18-0.09-0.26-0.14c-6.29-3.21-11.94-7.48-16.99-12.86c-5.71-5.98-10.05-12.78-13.02-20.42
		c-2.95-7.64-4.44-15.64-4.44-24.01c0.05-15.04,4.61-28.37,13.7-40.07l2.37-3.18c0.34-0.47,0.92-0.66,1.45-0.46l20.78,6.96
		c0.23,0.08,0.28,0.38,0.08,0.54c-10.79,7.88-17.89,21.15-17.92,36.22c-0.03,24.23,18.21,43.89,40.75,43.94h0.23
		c22.54-0.05,40.78-19.71,40.75-43.94c-0.03-15.07-7.13-28.34-17.92-36.22c-0.2-0.15-0.15-0.46,0.09-0.54l20.77-6.96
		c0.54-0.2,1.12-0.02,1.47,0.46l2.36,3.18C556.23,362.68,560.79,376.01,560.84,391.05z"/>
	<path class="st1" d="M505.39,445.14c5.69-3.66,12.25-8.82,18.47-15.98c4.4-5.06,7.67-10.05,10.11-14.41
		c-0.01,0-0.01-0.01-0.01-0.01c-11.34,6.62-22.69,13.25-34.03,19.87c-0.28,0.17-0.7,0.17-0.98,0c-11.3-6.63-22.6-13.25-33.9-19.88
		c2.46,4.37,5.76,9.36,10.17,14.42c8.37,9.61,17.35,15.62,23.99,19.26c0.2,0.02,0.41,0.01,0.58-0.08
		C501.65,447.27,503.52,446.21,505.39,445.14z"/>
	<g>
		<path class="st0" d="M224.15,677.11v-11.63c-1.37,0.31-2.6,0.47-3.7,0.47c-1.43,0-2.62-0.21-3.56-0.64
			c-0.94-0.42-1.65-1.07-2.11-1.94c-0.47-0.87-0.7-1.96-0.7-3.27v-8.18h3.55v8.18c0,0.79,0.11,1.45,0.34,1.97
			c0.23,0.53,0.6,0.92,1.12,1.18c0.52,0.26,1.2,0.39,2.05,0.39c0.44,0,0.91-0.03,1.41-0.09c0.51-0.06,1.04-0.16,1.6-0.28v-11.35
			h3.55v25.19H224.15z"/>
		<path class="st0" d="M231.61,677.11v-25.19h9.76v2.61h-6.25v8.33h5.07v2.49h-5.07v9.24h6.31v2.52H231.61z"/>
		<path class="st0" d="M250.58,677.39c-1.78,0-3.17-0.37-4.15-1.12c-0.99-0.75-1.67-1.75-2.05-3.02c-0.38-1.26-0.58-2.67-0.58-4.23
			v-8.89c0-1.7,0.19-3.18,0.58-4.45c0.38-1.26,1.07-2.24,2.05-2.94c0.98-0.69,2.37-1.04,4.15-1.04c1.58,0,2.82,0.29,3.75,0.87
			c0.92,0.58,1.59,1.41,1.99,2.49s0.61,2.37,0.61,3.89v1.99h-3.33v-1.77c0-0.93-0.05-1.76-0.14-2.47c-0.09-0.72-0.35-1.27-0.76-1.66
			c-0.41-0.39-1.11-0.59-2.08-0.59c-1,0-1.72,0.21-2.18,0.64c-0.46,0.42-0.75,1.03-0.89,1.8c-0.13,0.78-0.2,1.69-0.2,2.72v9.98
			c0,1.26,0.1,2.26,0.31,3c0.21,0.74,0.55,1.26,1.03,1.57c0.48,0.31,1.12,0.47,1.93,0.47c0.95,0,1.64-0.21,2.05-0.64
			c0.41-0.42,0.67-1.01,0.78-1.76c0.1-0.75,0.16-1.62,0.16-2.61v-1.87h3.33v1.87c0,1.53-0.19,2.89-0.56,4.06
			c-0.37,1.17-1.02,2.08-1.93,2.74C253.52,677.06,252.24,677.39,250.58,677.39z"/>
		<path class="st0" d="M263.05,677.11v-22.58h-4.26v-2.61h11.91v2.61h-4.14v22.58H263.05z"/>
		<path class="st0" d="M273.12,677.11v-25.19h3.51v10.88h6.47v-10.88h3.51v25.19h-3.51v-11.79h-6.47v11.79H273.12z"/>
		<path class="st0" d="M290.56,677.11v-25.19h3.51v10.48h1c1.82,0,3.33,0.21,4.51,0.64c1.18,0.42,2.07,1.17,2.66,2.22
			c0.59,1.06,0.89,2.55,0.89,4.48c0,1.31-0.16,2.42-0.47,3.34c-0.31,0.92-0.79,1.68-1.45,2.29c-0.65,0.6-1.47,1.04-2.46,1.32
			c-0.99,0.28-2.16,0.42-3.53,0.42H290.56z M294.08,674.59h1.15c1.06,0,1.92-0.12,2.6-0.36c0.67-0.24,1.18-0.71,1.51-1.41
			c0.33-0.71,0.5-1.74,0.5-3.11c0-1.72-0.33-2.94-1-3.67c-0.66-0.73-1.89-1.09-3.67-1.09h-1.09V674.59z M305.74,677.11v-25.19h3.51
			v25.19H305.74z"/>
		<path class="st0" d="M313.2,677.11v-25.19h9.76v2.61h-6.25v8.33h5.07v2.49h-5.07v9.24h6.31v2.52H313.2z"/>
		<path class="st0" d="M332.98,677.11v-25.19h3.51v11.19h1.31l4.51-11.19h3.51l-4.98,11.97l5.6,13.22h-3.51l-5.1-12.28h-1.34v12.28
			H332.98z"/>
		<path class="st0" d="M348.77,677.11v-25.19h5.78c1.14,0,2.13,0.12,2.97,0.37c0.84,0.25,1.54,0.63,2.1,1.15
			c0.56,0.52,0.97,1.18,1.24,1.97c0.27,0.8,0.4,1.74,0.4,2.81c0,1.04-0.13,1.93-0.39,2.69c-0.26,0.76-0.65,1.35-1.18,1.79
			c-0.53,0.44-1.21,0.71-2.04,0.84c1.02,0.23,1.83,0.62,2.46,1.17c0.62,0.55,1.08,1.25,1.38,2.11c0.3,0.86,0.45,1.89,0.45,3.09
			c0,1.08-0.12,2.06-0.37,2.95c-0.25,0.89-0.64,1.65-1.17,2.27c-0.53,0.62-1.2,1.1-2.02,1.45c-0.82,0.34-1.79,0.51-2.91,0.51H348.77
			z M352.29,662.43h2.08c1,0,1.77-0.14,2.33-0.42c0.56-0.28,0.95-0.73,1.18-1.35c0.23-0.62,0.34-1.43,0.34-2.43
			c0-1.16-0.18-2-0.53-2.52c-0.35-0.52-0.9-0.84-1.65-0.98c-0.75-0.14-1.72-0.2-2.92-0.2h-0.84V662.43z M352.29,674.59h2.36
			c1.58,0,2.63-0.37,3.16-1.1c0.53-0.74,0.79-1.92,0.79-3.56c0-1.06-0.14-1.94-0.42-2.66c-0.28-0.71-0.73-1.25-1.34-1.62
			c-0.61-0.36-1.44-0.54-2.47-0.54h-2.08V674.59z"/>
		<path class="st0" d="M363.7,677.11l5.35-25.19h3.39l5.38,25.19h-3.33l-1.15-6.34h-5.13l-1.21,6.34H363.7z M368.67,668.25h4.2
			l-2.11-11.35L368.67,668.25z"/>
		<path class="st0" d="M380.37,677.11v-25.19h6.25c1.51,0,2.72,0.27,3.62,0.82c0.9,0.55,1.56,1.34,1.97,2.38
			c0.41,1.04,0.62,2.29,0.62,3.76c0,1.33-0.23,2.48-0.7,3.45c-0.47,0.97-1.16,1.73-2.07,2.25c-0.91,0.53-2.05,0.79-3.42,0.79h-2.77
			v11.72H380.37z M383.88,662.87h1.62c1.02,0,1.81-0.11,2.39-0.34c0.58-0.23,1-0.63,1.24-1.2c0.25-0.57,0.37-1.37,0.37-2.41
			c0-1.2-0.09-2.12-0.26-2.77c-0.18-0.64-0.54-1.09-1.1-1.34c-0.56-0.25-1.43-0.37-2.61-0.37h-1.65V662.87z"/>
		<path class="st0" d="M398.06,677.11v-22.58h-4.26v-2.61h11.91v2.61h-4.14v22.58H398.06z"/>
		<path class="st0" d="M408.13,677.11v-25.19h3.11v17.44l7.37-17.44h2.52v25.19h-3.08v-17.72l-7.31,17.72H408.13z"/>
		<path class="st0" d="M425.08,677.11v-25.19h6.25c1.51,0,2.72,0.27,3.62,0.82c0.9,0.55,1.56,1.34,1.97,2.38
			c0.41,1.04,0.62,2.29,0.62,3.76c0,1.33-0.23,2.48-0.7,3.45c-0.47,0.97-1.16,1.73-2.07,2.25c-0.91,0.53-2.05,0.79-3.42,0.79h-2.77
			v11.72H425.08z M428.59,662.87h1.62c1.02,0,1.81-0.11,2.39-0.34c0.58-0.23,1-0.63,1.24-1.2c0.25-0.57,0.37-1.37,0.37-2.41
			c0-1.2-0.09-2.12-0.26-2.77c-0.18-0.64-0.54-1.09-1.1-1.34c-0.56-0.25-1.43-0.37-2.61-0.37h-1.65V662.87z"/>
		<path class="st0" d="M440,677.11v-25.19h3.51v10.48h0.99c1.82,0,3.33,0.21,4.51,0.64c1.18,0.42,2.07,1.17,2.66,2.22
			c0.59,1.06,0.89,2.55,0.89,4.48c0,1.31-0.16,2.42-0.47,3.34c-0.31,0.92-0.79,1.68-1.45,2.29c-0.65,0.6-1.47,1.04-2.46,1.32
			c-0.99,0.28-2.16,0.42-3.53,0.42H440z M443.52,674.59h1.15c1.06,0,1.92-0.12,2.6-0.36c0.67-0.24,1.18-0.71,1.51-1.41
			c0.33-0.71,0.5-1.74,0.5-3.11c0-1.72-0.33-2.94-1-3.67c-0.66-0.73-1.89-1.09-3.67-1.09h-1.09V674.59z M455.18,677.11v-25.19h3.51
			v25.19H455.18z"/>
		<path class="st0" d="M469.76,677.11v-25.19h3.11v17.44l7.37-17.44h2.52v25.19h-3.08v-17.72l-7.31,17.72H469.76z"/>
		<path class="st0" d="M500.36,678.23V674c-0.1,0.02-0.27,0.04-0.5,0.06c-0.23,0.02-0.43,0.03-0.59,0.03c-1.26,0-2.34-0.2-3.22-0.59
			s-1.55-1.08-2.01-2.05c-0.46-0.97-0.68-2.31-0.68-4.01v-6.28c0-1.68,0.22-3.01,0.65-3.98c0.44-0.98,1.06-1.67,1.88-2.1
			c0.82-0.42,1.8-0.64,2.94-0.64c0.29,0,0.58,0.01,0.87,0.02c0.29,0.01,0.51,0.03,0.65,0.05v-4.85h3.51v4.85
			c0.21-0.02,0.47-0.04,0.78-0.05c0.31-0.01,0.58-0.02,0.81-0.02c1.18,0,2.18,0.21,3,0.64c0.82,0.42,1.44,1.13,1.87,2.11
			c0.42,0.99,0.64,2.31,0.64,3.97v6.28c0,1.68-0.22,3.01-0.65,3.98c-0.43,0.98-1.04,1.66-1.8,2.07c-0.77,0.4-1.64,0.61-2.61,0.61
			c-0.33,0-0.66-0.01-1-0.03c-0.33-0.02-0.67-0.04-1.03-0.06v4.23H500.36z M499.49,671.98c0.17,0,0.33,0,0.5-0.02
			c0.17-0.01,0.29-0.03,0.37-0.05v-15.3c-0.19-0.02-0.37-0.04-0.56-0.05c-0.19-0.01-0.36-0.02-0.53-0.02c-0.68,0-1.22,0.14-1.62,0.4
			c-0.39,0.27-0.67,0.74-0.84,1.4s-0.25,1.6-0.25,2.8v6.28c0,1.2,0.07,2.14,0.22,2.8c0.14,0.66,0.42,1.12,0.84,1.37
			C498.04,671.85,498.66,671.98,499.49,671.98z M505.02,671.98c0.75,0,1.32-0.12,1.71-0.37c0.39-0.25,0.66-0.71,0.81-1.37
			c0.14-0.66,0.22-1.6,0.22-2.8v-6.28c0-1.2-0.07-2.14-0.22-2.8c-0.15-0.66-0.41-1.13-0.81-1.4c-0.39-0.27-0.98-0.4-1.77-0.4
			c-0.19,0-0.37,0.01-0.56,0.02c-0.19,0.01-0.36,0.03-0.53,0.05v15.3c0.15,0.02,0.32,0.04,0.53,0.05
			C504.61,671.97,504.82,671.98,505.02,671.98z"/>
		<path class="st0" d="M514.41,677.11v-25.19h3.11v17.44l7.37-17.44h2.52v25.19h-3.08v-17.72l-7.31,17.72H514.41z"/>
		<path class="st0" d="M531.36,677.11v-25.19h3.51v10.88h6.47v-10.88h3.51v25.19h-3.51v-11.79h-6.47v11.79H531.36z"/>
		<path class="st0" d="M547.44,677.11l5.35-25.19h3.39l5.38,25.19h-3.33l-1.15-6.34h-5.13l-1.21,6.34H547.44z M552.41,668.25h4.2
			l-2.11-11.35L552.41,668.25z"/>
		<path class="st0" d="M564.1,677.11v-25.19h3.51v10.88h6.47v-10.88h3.51v25.19h-3.51v-11.79h-6.47v11.79H564.1z"/>
		<path class="st0" d="M587.86,677.39c-1.78,0-3.17-0.37-4.15-1.12c-0.99-0.75-1.67-1.75-2.05-3.02c-0.38-1.26-0.58-2.67-0.58-4.23
			v-8.89c0-1.7,0.19-3.18,0.58-4.45c0.38-1.26,1.07-2.24,2.05-2.94c0.98-0.69,2.37-1.04,4.15-1.04c1.58,0,2.82,0.29,3.75,0.87
			c0.92,0.58,1.59,1.41,1.99,2.49s0.61,2.37,0.61,3.89v1.99h-3.33v-1.77c0-0.93-0.05-1.76-0.14-2.47c-0.09-0.72-0.35-1.27-0.76-1.66
			c-0.41-0.39-1.11-0.59-2.08-0.59c-0.99,0-1.72,0.21-2.18,0.64c-0.46,0.42-0.75,1.03-0.89,1.8c-0.13,0.78-0.2,1.69-0.2,2.72v9.98
			c0,1.26,0.1,2.26,0.31,3c0.21,0.74,0.55,1.26,1.03,1.57c0.48,0.31,1.12,0.47,1.93,0.47c0.95,0,1.64-0.21,2.05-0.64
			c0.41-0.42,0.67-1.01,0.78-1.76c0.1-0.75,0.16-1.62,0.16-2.61v-1.87h3.33v1.87c0,1.53-0.19,2.89-0.56,4.06
			c-0.37,1.17-1.02,2.08-1.93,2.74C590.8,677.06,589.52,677.39,587.86,677.39z"/>
		<path class="st0" d="M604,677.39c-1.7,0-3.06-0.33-4.07-0.99c-1.02-0.66-1.74-1.61-2.18-2.85c-0.43-1.23-0.65-2.68-0.65-4.34
			v-9.55c0-1.66,0.22-3.08,0.67-4.28c0.45-1.19,1.17-2.1,2.18-2.74c1.01-0.63,2.36-0.95,4.06-0.95c1.7,0,3.05,0.32,4.04,0.96
			c1,0.64,1.72,1.55,2.16,2.74c0.45,1.18,0.67,2.6,0.67,4.26v9.58c0,1.64-0.22,3.07-0.67,4.29c-0.45,1.22-1.17,2.17-2.16,2.85
			C607.04,677.05,605.7,677.39,604,677.39z M604,674.62c0.93,0,1.64-0.19,2.11-0.57c0.48-0.38,0.8-0.92,0.96-1.62
			c0.17-0.69,0.25-1.51,0.25-2.44v-11.04c0-0.93-0.08-1.74-0.25-2.41c-0.17-0.67-0.49-1.19-0.96-1.55
			c-0.48-0.36-1.18-0.54-2.11-0.54c-0.93,0-1.64,0.18-2.13,0.54c-0.49,0.36-0.81,0.88-0.98,1.55c-0.17,0.67-0.25,1.48-0.25,2.41
			v11.04c0,0.93,0.08,1.75,0.25,2.44c0.17,0.69,0.49,1.23,0.98,1.62C602.35,674.43,603.06,674.62,604,674.62z"/>
		<path class="st0" d="M614.32,677.11v-25.19h5.78c1.14,0,2.13,0.12,2.97,0.37c0.84,0.25,1.54,0.63,2.1,1.15
			c0.56,0.52,0.97,1.18,1.24,1.97c0.27,0.8,0.4,1.74,0.4,2.81c0,1.04-0.13,1.93-0.39,2.69c-0.26,0.76-0.65,1.35-1.18,1.79
			s-1.21,0.71-2.04,0.84c1.02,0.23,1.83,0.62,2.46,1.17s1.08,1.25,1.38,2.11c0.3,0.86,0.45,1.89,0.45,3.09
			c0,1.08-0.12,2.06-0.37,2.95c-0.25,0.89-0.64,1.65-1.17,2.27c-0.53,0.62-1.2,1.1-2.02,1.45c-0.82,0.34-1.79,0.51-2.91,0.51H614.32
			z M617.83,662.43h2.08c1,0,1.77-0.14,2.33-0.42c0.56-0.28,0.95-0.73,1.18-1.35c0.23-0.62,0.34-1.43,0.34-2.43
			c0-1.16-0.18-2-0.53-2.52c-0.35-0.52-0.9-0.84-1.65-0.98c-0.75-0.14-1.72-0.2-2.92-0.2h-0.84V662.43z M617.83,674.59h2.36
			c1.58,0,2.63-0.37,3.16-1.1c0.53-0.74,0.79-1.92,0.79-3.56c0-1.06-0.14-1.94-0.42-2.66c-0.28-0.71-0.73-1.25-1.34-1.62
			c-0.61-0.36-1.44-0.54-2.47-0.54h-2.08V674.59z"/>
		<path class="st0" d="M630.61,677.11v-25.19h3.51v10.48h1c1.82,0,3.33,0.21,4.51,0.64c1.18,0.42,2.07,1.17,2.66,2.22
			c0.59,1.06,0.89,2.55,0.89,4.48c0,1.31-0.16,2.42-0.47,3.34c-0.31,0.92-0.79,1.68-1.45,2.29c-0.65,0.6-1.47,1.04-2.46,1.32
			c-0.99,0.28-2.16,0.42-3.53,0.42H630.61z M634.13,674.59h1.15c1.06,0,1.92-0.12,2.6-0.36c0.67-0.24,1.18-0.71,1.51-1.41
			c0.33-0.71,0.5-1.74,0.5-3.11c0-1.72-0.33-2.94-0.99-3.67c-0.66-0.73-1.89-1.09-3.67-1.09h-1.09V674.59z M645.79,677.11v-25.19
			h3.51v25.19H645.79z"/>
		<path class="st0" d="M653.25,677.11v-25.19h9.76v2.61h-6.25v8.33h5.07v2.49h-5.07v9.24h6.31v2.52H653.25z"/>
		<path class="st0" d="M679.34,677.39c-1.78,0-3.17-0.37-4.15-1.12c-0.99-0.75-1.67-1.75-2.05-3.02c-0.38-1.26-0.58-2.67-0.58-4.23
			v-8.89c0-1.7,0.19-3.18,0.58-4.45c0.38-1.26,1.07-2.24,2.05-2.94c0.98-0.69,2.37-1.04,4.15-1.04c1.58,0,2.82,0.29,3.75,0.87
			c0.92,0.58,1.59,1.41,1.99,2.49s0.61,2.37,0.61,3.89v1.99h-3.33v-1.77c0-0.93-0.05-1.76-0.14-2.47c-0.09-0.72-0.35-1.27-0.76-1.66
			c-0.41-0.39-1.11-0.59-2.08-0.59c-0.99,0-1.72,0.21-2.18,0.64c-0.46,0.42-0.75,1.03-0.89,1.8c-0.13,0.78-0.2,1.69-0.2,2.72v9.98
			c0,1.26,0.1,2.26,0.31,3c0.21,0.74,0.55,1.26,1.03,1.57c0.48,0.31,1.12,0.47,1.93,0.47c0.95,0,1.64-0.21,2.05-0.64
			c0.41-0.42,0.67-1.01,0.78-1.76c0.1-0.75,0.16-1.62,0.16-2.61v-1.87h3.33v1.87c0,1.53-0.19,2.89-0.56,4.06
			c-0.37,1.17-1.02,2.08-1.93,2.74C682.28,677.06,681,677.39,679.34,677.39z"/>
		<path class="st0" d="M689.04,677.11v-25.19h9.76v2.61h-6.25v8.33h5.07v2.49h-5.07v9.24h6.31v2.52H689.04z"/>
		<path class="st0" d="M701.7,677.11v-25.19h6.25c1.51,0,2.72,0.27,3.62,0.82c0.9,0.55,1.56,1.34,1.97,2.38
			c0.41,1.04,0.62,2.29,0.62,3.76c0,1.33-0.23,2.48-0.7,3.45c-0.47,0.97-1.16,1.73-2.07,2.25c-0.91,0.53-2.05,0.79-3.42,0.79h-2.77
			v11.72H701.7z M705.21,662.87h1.62c1.02,0,1.81-0.11,2.39-0.34c0.58-0.23,0.99-0.63,1.24-1.2c0.25-0.57,0.37-1.37,0.37-2.41
			c0-1.2-0.09-2.12-0.26-2.77c-0.18-0.64-0.54-1.09-1.1-1.34c-0.56-0.25-1.43-0.37-2.61-0.37h-1.65V662.87z"/>
		<path class="st0" d="M716.62,677.11v-25.19h5.78c1.14,0,2.13,0.12,2.97,0.37c0.84,0.25,1.54,0.63,2.1,1.15
			c0.56,0.52,0.97,1.18,1.24,1.97c0.27,0.8,0.4,1.74,0.4,2.81c0,1.04-0.13,1.93-0.39,2.69c-0.26,0.76-0.65,1.35-1.18,1.79
			c-0.53,0.44-1.21,0.71-2.04,0.84c1.02,0.23,1.83,0.62,2.46,1.17s1.08,1.25,1.38,2.11c0.3,0.86,0.45,1.89,0.45,3.09
			c0,1.08-0.12,2.06-0.37,2.95c-0.25,0.89-0.64,1.65-1.17,2.27c-0.53,0.62-1.2,1.1-2.02,1.45c-0.82,0.34-1.79,0.51-2.91,0.51H716.62
			z M720.13,662.43h2.08c1,0,1.77-0.14,2.33-0.42c0.56-0.28,0.95-0.73,1.18-1.35c0.23-0.62,0.34-1.43,0.34-2.43
			c0-1.16-0.18-2-0.53-2.52c-0.35-0.52-0.9-0.84-1.65-0.98c-0.75-0.14-1.72-0.2-2.92-0.2h-0.84V662.43z M720.13,674.59h2.36
			c1.58,0,2.63-0.37,3.16-1.1c0.53-0.74,0.79-1.92,0.79-3.56c0-1.06-0.14-1.94-0.42-2.66c-0.28-0.71-0.73-1.25-1.34-1.62
			c-0.61-0.36-1.44-0.54-2.47-0.54h-2.08V674.59z"/>
		<path class="st0" d="M732.91,677.11v-25.19h3.11v17.44l7.37-17.44h2.52v25.19h-3.08v-17.72l-7.31,17.72H732.91z"/>
		<path class="st0" d="M756.17,677.39c-1.78,0-3.17-0.37-4.15-1.12c-0.99-0.75-1.67-1.75-2.05-3.02c-0.38-1.26-0.58-2.67-0.58-4.23
			v-8.89c0-1.7,0.19-3.18,0.58-4.45c0.38-1.26,1.07-2.24,2.05-2.94c0.98-0.69,2.37-1.04,4.15-1.04c1.58,0,2.82,0.29,3.75,0.87
			c0.92,0.58,1.59,1.41,1.99,2.49s0.61,2.37,0.61,3.89v1.99h-3.33v-1.77c0-0.93-0.05-1.76-0.14-2.47c-0.09-0.72-0.35-1.27-0.76-1.66
			c-0.41-0.39-1.11-0.59-2.08-0.59c-1,0-1.72,0.21-2.18,0.64c-0.46,0.42-0.75,1.03-0.89,1.8c-0.13,0.78-0.2,1.69-0.2,2.72v9.98
			c0,1.26,0.1,2.26,0.31,3c0.21,0.74,0.55,1.26,1.03,1.57c0.48,0.31,1.12,0.47,1.93,0.47c0.95,0,1.64-0.21,2.05-0.64
			c0.41-0.42,0.67-1.01,0.78-1.76c0.1-0.75,0.16-1.62,0.16-2.61v-1.87h3.33v1.87c0,1.53-0.19,2.89-0.56,4.06
			c-0.37,1.17-1.02,2.08-1.93,2.74C759.12,677.06,757.83,677.39,756.17,677.39z"/>
		<path class="st0" d="M765.87,677.11v-25.19h3.51v10.48h0.99c1.82,0,3.33,0.21,4.51,0.64c1.18,0.42,2.07,1.17,2.66,2.22
			c0.59,1.06,0.89,2.55,0.89,4.48c0,1.31-0.16,2.42-0.47,3.34c-0.31,0.92-0.79,1.68-1.45,2.29c-0.65,0.6-1.47,1.04-2.46,1.32
			c-0.99,0.28-2.16,0.42-3.53,0.42H765.87z M769.39,674.59h1.15c1.06,0,1.92-0.12,2.6-0.36c0.67-0.24,1.18-0.71,1.51-1.41
			c0.33-0.71,0.5-1.74,0.5-3.11c0-1.72-0.33-2.94-1-3.67c-0.66-0.73-1.89-1.09-3.67-1.09h-1.09V674.59z M781.05,677.11v-25.19h3.51
			v25.19H781.05z"/>
	</g>
</g>
</svg>
